<?xml version="1.0" encoding="UTF-8"?>
<svg id="Layer_2" data-name="Layer 2" xmlns="http://www.w3.org/2000/svg" viewBox="0 0 258.98 80.88">
  <defs>
    <style>
      .cls-1 {
        fill: #231f20;
      }

      .cls-2 {
        fill: #603913;
      }
    </style>
  </defs>
  <g id="Layer_1-2" data-name="Layer 1">
    <g>
      <path class="cls-2" d="M.86,31.28c1.41-3.89,3.89-5.85,7.38-5.85,4.07,0,6.09,1.75,6.09,5.33v.77c-.31.86-.83,1.29-1.59,1.29-.55,0-1.04-.28-1.44-.77-1.07-1.41-1.77-2.14-2.14-2.14-3.55,0-5.33,1.93-5.33,5.72,0,1.47.28,2.75.77,3.98,1.1,2.66,2.69,3.98,4.74,3.98.67,0,1.1-.12,1.26-.34.77-1.13,1.47-1.71,2.2-1.71.92,0,1.56.4,1.93,1.07v.64c0,1.5-1.1,2.75-3.31,3.73-1.29.55-2.45.86-3.46.86-3.06,0-5.3-1.75-6.76-5.23-.8-1.87-1.19-3.95-1.19-6.21,0-1.77.31-3.46.86-5.11ZM10.68,26.29c-.09-.21-.37-.34-.83-.34l-.03.03c.37.18.64.31.8.31h.06Z"/>
      <path class="cls-2" d="M18.61,25.43c1.19,0,1.96.77,2.33,2.23.03.18.21,1.47.43,3.86.09,1.13.37,1.68.73,1.68.09,0,.24-.06.55-.21,1.04-.55,1.93-.86,2.66-.86,3.28,0,4.9,2.05,4.9,6.21v1.26c-.09,2.51-.15,4.56-.18,6.09-.06,1.87-.73,2.79-1.99,2.79-.89,0-1.44-.55-1.74-1.62-.03-.37-.03-.77-.03-1.13,0-.61,0-1.01.03-1.1.03-.64.06-1.13.09-1.5v-1.62c0-1.1-.03-1.93-.09-2.42-.31-1.81-.98-2.69-1.99-2.69-1.56,0-2.42,1.22-2.51,3.64l-.21,4.68c-.09,1.87-.86,2.79-2.33,2.79-.95,0-1.56-.58-1.84-1.71v-2.02c.18-1.93.28-3.4.31-4.35v-2.66c0-2.39-.03-3.95-.09-4.62-.28-1.81-.43-3.18-.52-4.07-.03-.03-.03-.21-.03-.55,0-1.41.52-2.08,1.53-2.08Z"/>
      <path class="cls-2" d="M39.37,31.83c4.5,0,6.7,2.57,6.7,7.77,0,5.54-2.36,8.33-7.04,8.33h-1.04c-3.64-.77-5.45-3.43-5.45-8.11,0-5.33,2.27-7.99,6.83-7.99ZM39.43,43.77c1.87,0,2.82-1.35,2.82-4.01s-.95-4.01-2.85-4.01-2.94,1.41-2.94,4.19c0,2.54,1.01,3.83,2.97,3.83Z"/>
      <path class="cls-2" d="M48.89,35.99c1.01-3.43,2.75-5.14,5.26-5.14,3.73,0,5.6,1.41,5.6,4.19v.64c-.18.64-.64.98-1.38.98-.49,0-1.5-.55-2.97-1.62-.12-.09-.43-.12-.86-.12-1.81,0-2.66,1.53-2.66,4.59,0,2.3.73,3.43,2.27,3.43.52,0,.98-.09,1.35-.31,1.74-1.01,2.91-1.53,3.49-1.53.89,0,1.35.46,1.35,1.38,0,1.44-.92,2.66-2.79,3.64-1.65.89-3.03,1.32-4.25,1.32-3.31,0-4.96-2.27-4.96-6.83,0-1.84.18-3.37.55-4.62Z"/>
      <path class="cls-2" d="M69.22,31.83c4.5,0,6.7,2.57,6.7,7.77,0,5.54-2.36,8.33-7.04,8.33h-1.04c-3.64-.77-5.45-3.43-5.45-8.11,0-5.33,2.27-7.99,6.83-7.99ZM69.28,43.77c1.87,0,2.82-1.35,2.82-4.01s-.95-4.01-2.85-4.01-2.94,1.41-2.94,4.19c0,2.54,1.01,3.83,2.97,3.83Z"/>
      <path class="cls-2" d="M80.49,24.76c1.22,0,1.78.37,1.78,1.1-.03.86-.03,1.68-.03,2.54s0,1.74.03,2.6c.09,3.83.34,7.65.55,11.48.31,1.74.43,2.97.43,3.77,0,1.47-.86,2.23-2.6,2.23-1.07,0-1.77-.37-1.99-1.16v-1.71c.15-1.93.28-3.34.31-4.29v-2.57c0-4.71-.21-8.63-.64-11.81v-.21c0-1.29.73-1.96,2.17-1.96Z"/>
      <path class="cls-2" d="M93.62,34.16c.8,0,1.41-.28,1.87-.83.83-1.01,1.35-1.53,1.65-1.53,1.01,0,1.56,1.16,1.65,3.46.09,1.68.12,3.86.12,6.64v2.72c-.18,2.54-.7,3.83-1.59,3.83-.55,0-1.47-.61-2.69-1.9-.15-.15-.4-.25-.7-.25h-.25c-2.05,1.07-3.49,1.62-4.35,1.62-2.26,0-3.58-1.41-3.98-4.25-.03-.46-.03-.92-.03-1.41,0-1.47.28-2.94.8-4.38.98-2.79,2.54-4.16,4.74-4.16.28,0,1.19.12,2.72.43h.03ZM90.38,43.77c-.98-.03-1.71-.21-2.14-.52v.03c0,.49.4.73,1.19.73.31,0,.58-.09.95-.25ZM88.75,36.21c1.41-.61,2.33-1.13,2.69-1.5l.09-.12h-.09c-1.81,0-2.69.52-2.69,1.53v.09ZM90.38,43.25c1.87,0,2.79-1.41,2.79-4.19,0-1.13-.4-1.71-1.19-1.71-2.05,0-3.09,1.35-3.09,4.07,0,1.22.49,1.84,1.5,1.84ZM95.61,47.07s-.03.03-.03.06c0,.15.15.34.46.55-.09-.31-.28-.52-.43-.61ZM96.59,33.73c.28,0,.4-.31.4-.92,0-.15-.06-.25-.15-.25-.28,0-.4.28-.4.83,0,.21.06.34.15.34Z"/>
      <path class="cls-2" d="M105.56,26.81c1.01,0,1.62.43,1.71,1.32.21,2.33.67,3.49,1.29,3.58,1.93.31,2.88,1.01,2.88,2.14,0,1.01-.46,1.62-1.41,1.93-2.14.03-3.21.89-3.21,2.48,0,.77.15,1.87.46,3.28.28,1.35.58,2.05.98,2.05.15,0,.34-.06.49-.15.92-.37,1.41-.52,1.5-.52,1.71,0,2.57.77,2.57,2.27,0,1.41-.83,2.17-2.48,2.33-.83.09-1.68.12-2.63.12-2.39,0-3.95-1.29-4.59-3.95-.37-2.6-.77-4.65-1.19-6.18-.43-1.53-.64-2.42-.64-2.51,0-.8.61-1.71,1.84-2.72.43-.37.61-.98.61-1.87v-.58c-.06-.31-.09-.49-.09-.64v-.49c0-1.25.64-1.87,1.93-1.87ZM102.47,33.33l.09.09c0,.06-.03.12-.09.21v.12c0,.15.06.21.15.21.15,0,.37-.18.67-.55-.03-.09-.21-.18-.52-.21.09-.12.34-.25.77-.4.21-.09.34-.21.34-.37-.95,0-1.41.28-1.41.83v.06ZM108.13,44.1c.12.21.34.31.64.31.15,0,.49-.34.95-1.07h-.06c-.06,0-.25.25-.58.67-.09.15-.31.21-.52.21s-.37-.03-.43-.12ZM109.82,32.47c-.15-.21-.37-.34-.67-.34,0,.21.18.34.61.34h.06Z"/>
      <path class="cls-2" d="M122,31.1c3.37,0,5.05,1.44,5.05,4.35,0,3.7-2.45,5.88-7.29,6.52v.09c0,1.5,1.07,2.26,3.28,2.26.03,0,.18-.09.46-.31.55-.49,1.13-.77,1.62-.77,1.29,0,1.93.58,1.93,1.78,0,1.75-1.13,2.6-3.46,2.6-6.09,0-9.15-2.94-9.15-8.82,0-5.14,2.51-7.71,7.56-7.71ZM118.6,38.23h.8c2.02,0,3.03-.86,3.03-2.6,0-.46-.31-.7-.89-.7-2.02,0-3.03,1.07-3.03,3.12,0,.09.03.15.09.18ZM119.95,32.14c.09,0,.31-.06.67-.18h-.21c-.21,0-.46.03-.64.09.03.06.12.09.18.09Z"/>
      <path class="cls-2" d="M147.57,30.85c.98-1.87,1.71-3.21,2.2-4.13.92-1.65,2.11-2.48,3.55-2.48,1.56,0,2.36.89,2.36,2.63,0,.37-.03.7-.12,1.1-.37,1.93-.55,4.59-.55,7.93,0,2.33.06,4.1.12,5.33.09,1.01.18,1.71.21,2.2v1.01c0,1.96-.64,2.97-1.99,2.97-1.87,0-2.82-1.04-2.82-3.18,0-.83.06-1.59.21-2.36v-4.71l-.31-2.23-.12-.21c-.37.31-1.1,1.35-2.23,3.18-.49.55-1.07.86-1.74.86-.92,0-1.68-.52-2.3-1.59-1.01-1.78-1.74-2.97-2.17-3.52-.03-.09-.06-.12-.15-.12-.21,0-.31.55-.34,1.62v3.95c.09,2.08.18,3.67.21,4.68v.8c0,1.96-.55,2.94-1.62,2.94h-1.41c-.98,0-1.47-1.1-1.47-3.34v-.73c.06-.83.09-1.41.09-1.81v-.7c0-1.19-.09-4.71-.31-10.59-.03-.31-.09-.52-.12-.83-.15-.95-.21-1.68-.21-2.17,0-1.99.89-2.97,2.63-2.97,1.1,0,1.99.58,2.6,1.71.77,1.38,1.32,2.42,1.71,3.09,1.13,1.93,2.05,2.88,2.69,2.88.49,0,.95-.4,1.38-1.19Z"/>
      <path class="cls-2" d="M159.82,24.67h.12c-.06.09-.24.21-.55.34h.21l1.44-.25c1.25,0,1.87.77,1.87,2.27,0,1.99-.92,3-2.72,3-.12,0-.21-.06-.25-.12-.06-.09-.4-.31-.95-.52-.83-.61-1.22-1.29-1.22-2.02,0-1.81.67-2.69,2.05-2.69ZM160.76,32.14h.18c1.41,0,2.11.61,2.11,1.84v7.99c0,.31.12.73.28,1.29.43,1.35.67,2.02.67,2.05,0,1.75-.86,2.63-2.57,2.63-1.59,0-2.39-.8-2.39-2.48,0-.09.12-.67.34-1.68.06-.34.12-.64.12-.95v-.09l-.77-7.81v-.46c0-.83.31-1.44.86-1.9h.09c.21,0,.61-.09,1.19-.34l-.12-.09Z"/>
      <path class="cls-2" d="M168.33,24.76c1.22,0,1.78.37,1.78,1.1-.03.86-.03,1.68-.03,2.54s0,1.74.03,2.6c.09,3.83.34,7.65.55,11.48.31,1.74.43,2.97.43,3.77,0,1.47-.86,2.23-2.6,2.23-1.07,0-1.77-.37-1.99-1.16v-1.71c.15-1.93.28-3.34.31-4.29v-2.57c0-4.71-.21-8.63-.64-11.81v-.21c0-1.29.73-1.96,2.17-1.96Z"/>
      <path class="cls-2" d="M181.61,31.95s.09-.12.21-.15c.31-.09.46-.21.46-.4-.21,0-.37.03-.52.06.37-.15.7-.25,1.01-.25,1.41,0,2.14.61,2.14,1.93,0,.86-.46,1.71-1.38,2.54-1.81,1.56-2.69,2.51-2.69,2.85,0,.43.24.89.67,1.32l4.9,4.87c.31.31.43.77.43,1.38,0,1.26-.64,1.87-1.96,1.87-1.1,0-2.14-.61-3.06-1.84-1.1-1.47-2.23-3-3.31-4.5-.09-.15-.21-.21-.34-.21-.31,0-.46.52-.49,1.59-.06,1.13-.12,2.33-.12,3.46-.12.49-.49.95-1.07,1.38l.09.09h-.67c-1.53,0-2.3-.67-2.3-2.02,0-.37.12-1.68.43-3.95.03-1.29.03-2.54.03-3.83,0-2.23,0-3.49-.03-3.86-.03-1.84-.15-3.24-.34-4.25-.31-1.68-.43-2.57-.43-2.72,0-1.74.77-2.63,2.3-2.63.98,0,1.59.49,1.87,1.5,0,.43-.03.92-.03,1.41,0,2.02.12,4.53.37,7.44.03.03.06.03.09.03.09,0,.21-.06.31-.21,1.25-1.62,2.36-2.72,3.31-3.24-.03.03-.06.09-.09.12l.21.25ZM174.14,25.65l.55-.55h-.06c-.43,0-.61.18-.61.55h.12ZM181.77,31.46c-.09.03-.18.06-.28.12.06-.06.18-.09.28-.12Z"/>
      <path class="cls-2" d="M196.16,32.38c1.87-3.58,4.68-5.36,8.39-5.36,3.25,0,4.84,1.19,4.84,3.55,0,1.65-.67,2.45-2.08,2.45-.77,0-1.19-.31-1.32-.89v-.34c0-1.25-.55-1.9-1.65-1.9-1.84,0-3.46,1.22-4.87,3.64-.55.98-.86,2.3-.86,3.98,0,3.95,1.53,5.97,4.5,5.97,1.99,0,2.97-.86,2.97-2.54,0-1.19-.52-1.78-1.59-1.78-.21,0-.4.03-.52.12-1.44.86-2.2,1.29-2.27,1.29-.92,0-1.38-.46-1.38-1.38,0-1.87,1.53-2.82,4.59-2.82,3.58,0,5.33,1.56,5.33,4.71,0,4.19-2.45,6.31-7.41,6.31-5.36,0-8.05-3.09-8.05-9.21,0-2.14.46-4.07,1.38-5.82Z"/>
      <path class="cls-2" d="M220.56,34.16c.8,0,1.41-.28,1.87-.83.83-1.01,1.35-1.53,1.65-1.53,1.01,0,1.56,1.16,1.65,3.46.09,1.68.12,3.86.12,6.64v2.72c-.18,2.54-.7,3.83-1.59,3.83-.55,0-1.47-.61-2.69-1.9-.15-.15-.4-.25-.7-.25h-.25c-2.05,1.07-3.49,1.62-4.35,1.62-2.26,0-3.58-1.41-3.98-4.25-.03-.46-.03-.92-.03-1.41,0-1.47.28-2.94.8-4.38.98-2.79,2.54-4.16,4.74-4.16.28,0,1.19.12,2.72.43h.03ZM217.31,43.77c-.98-.03-1.71-.21-2.14-.52v.03c0,.49.4.73,1.19.73.31,0,.58-.09.95-.25ZM215.69,36.21c1.41-.61,2.33-1.13,2.69-1.5l.09-.12h-.09c-1.81,0-2.69.52-2.69,1.53v.09ZM217.31,43.25c1.87,0,2.79-1.41,2.79-4.19,0-1.13-.4-1.71-1.19-1.71-2.05,0-3.09,1.35-3.09,4.07,0,1.22.49,1.84,1.5,1.84ZM222.55,47.07s-.03.03-.03.06c0,.15.15.34.46.55-.09-.31-.28-.52-.43-.61ZM223.53,33.73c.28,0,.4-.31.4-.92,0-.15-.06-.25-.15-.25-.28,0-.4.28-.4.83,0,.21.06.34.15.34Z"/>
      <path class="cls-2" d="M231.12,32.04c.46,0,.89.12,1.25.34.77.43,1.25.67,1.47.7.37.03.67.03,1.01.03.55,0,.92,0,1.01-.03.86-.15,1.5-.24,1.93-.28.06-.03.37-.06.89-.06,2.26,0,3.37,1.1,3.37,3.31v.89c-.12.83-.18,1.41-.21,1.81v3.64c.15,1.13.31,2.02.34,2.57v.64c0,.98-.21,1.59-.64,1.9-.43.21-.86.37-1.32.43-.09,0-.15.03-.25.03-.67,0-1.19-.49-1.53-1.41v-1.84c.12-.95.18-1.62.21-2.11v-1.5c0-2.66-.46-3.95-1.41-3.95-2.63,0-3.95,1.38-3.95,4.1v.58c.09,1.04.18,1.84.21,2.36.03.09.03.31.03.67,0,1.74-.73,2.63-2.2,2.63-1.68,0-2.51-.92-2.51-2.72v-.25c.15-2.14.21-3.52.21-4.16v-1.71c-.12-1.22-.18-2.11-.21-2.69v-.77c0-2.08.77-3.15,2.3-3.15ZM230.91,46.65c.15,0,.28-.09.28-.28,0-.15-.12-.28-.43-.28-.21,0-.34.06-.34.21,0,.21.15.34.49.34ZM238.53,35.96c.28.09.52.15.73.15.37,0,.58-.09.58-.18,0-.03-.03-.03-.06-.06-.37-.21-.58-.34-.67-.34-.4,0-.58.12-.58.4v.03Z"/>
      <path class="cls-2" d="M247.56,35.26c.31-.46,1.1-1.01,2.45-1.62,1.25-.58,2.6-.89,4.07-.89,3.28,0,4.9,1.77,4.9,5.2,0,1.41-.49,3.18-1.5,5.39v.09c.55.55.86,1.19.86,1.87,0,4.87-3.64,8.85-8.69,8.85-1.74,0-3.03-.61-3.03-2.11,0-1.68,1.1-2.48,3.34-2.48h.31c.06.12.12.18.18.18h.15c.61,0,1.38-.55,2.39-1.71v-.03c0-.06.09-.18.34-.4h-.09c-1.01.31-1.87.46-2.54.46-3.49,0-5.63-1.74-6.31-5.23-.03-.4-.03-.8-.03-1.19,0-2.33.86-4.29,2.6-5.85.03.03.06.03.09.03.09,0,.12-.12.12-.31.15,0,.31-.09.4-.24ZM250.59,43.77c2.51,0,3.8-1.53,3.8-4.53v-.8c-.28-1.07-.92-1.62-1.99-1.62-2.79,0-4.19,1.44-4.19,4.29,0,1.78.8,2.66,2.39,2.66Z"/>
    </g>
    <g>
      <path class="cls-1" d="M101.75,53.09h1.02c1.72,0,3.04.26,3.95.77.91.52,1.67,1.34,2.26,2.46.59,1.12.89,2.4.89,3.81,0,1.2-.21,2.32-.64,3.35s-1.05,1.9-1.89,2.58c-.58.49-1.38.89-2.39,1.2v10.05h-3.19v-24.23ZM104.95,56.69v7.09c1.06-.72,1.6-1.91,1.6-3.57,0-.87-.13-1.6-.4-2.19s-.67-1.03-1.2-1.34Z"/>
      <path class="cls-1" d="M113.77,61.17c.11-.17.21-.42.32-.74.3-.84.65-1.4,1.04-1.67.27-.19.66-.28,1.18-.28v3.52c-.71.19-1.26.56-1.67,1.1-.58.78-.87,1.45-.87,1.99v12.24h-2.77v-15.33c0-.6-.21-1.08-.62-1.44l1.68-2.07c.56.22.96.5,1.19.84.24.34.41.96.53,1.85Z"/>
      <path class="cls-1" d="M122.85,77.24c-.44.19-.94.28-1.5.28-1.4,0-2.61-.69-3.65-2.08s-1.56-3.85-1.56-7.37v-2.14c0-2.85.42-4.91,1.25-6.17.56-.85,1.3-1.28,2.21-1.28,1.12,0,1.97.51,2.54,1.52.57,1.02.85,2.24.85,3.68,0,1.72-.34,3.1-1.03,4.12-.68,1.02-1.65,1.73-2.89,2.13.02,1.56.34,2.77.98,3.63.46.61.99.92,1.62.92.28,0,.67-.12,1.18-.37v3.14ZM119.66,61.42c-.25.4-.42.74-.5,1.04-.15.56-.22,1.22-.22,1.98v2.42c.42-.19.75-.52.98-.98.23-.47.34-1.17.34-2.13,0-1.04-.2-1.82-.6-2.33Z"/>
      <path class="cls-1" d="M123.72,74.24c.34.37.72.55,1.15.55.39,0,.7-.13.94-.39.24-.26.36-.63.36-1.11,0-.88-.37-2.42-1.1-4.62-.88-2.65-1.32-4.65-1.32-6.01,0-1.47.26-2.53.79-3.19.53-.66,1.21-.99,2.04-.99.51,0,1.13.2,1.84.61v2.59c-.38-.33-.72-.49-1.02-.49s-.56.12-.78.37c-.22.25-.33.6-.33,1.06,0,.84.35,2.32,1.04,4.45.9,2.76,1.35,4.84,1.35,6.26s-.29,2.51-.86,3.19c-.58.68-1.34,1.02-2.3,1.02-.61,0-1.21-.17-1.81-.51v-2.78Z"/>
      <path class="cls-1" d="M136.15,77.24c-.44.19-.94.28-1.5.28-1.4,0-2.61-.69-3.65-2.08-1.04-1.39-1.56-3.85-1.56-7.37v-2.14c0-2.85.42-4.91,1.25-6.17.56-.85,1.3-1.28,2.21-1.28,1.12,0,1.97.51,2.54,1.52.57,1.02.85,2.24.85,3.68,0,1.72-.34,3.1-1.03,4.12-.68,1.02-1.65,1.73-2.89,2.13.02,1.56.34,2.77.97,3.63.46.61,1,.92,1.62.92.28,0,.67-.12,1.18-.37v3.14ZM132.97,61.42c-.25.4-.42.74-.5,1.04-.15.56-.22,1.22-.22,1.98v2.42c.42-.19.74-.52.97-.98s.35-1.17.35-2.13c0-1.04-.2-1.82-.6-2.33Z"/>
      <path class="cls-1" d="M140.26,61.17c.11-.17.21-.42.32-.74.3-.84.65-1.4,1.04-1.67.27-.19.66-.28,1.17-.28v3.52c-.71.19-1.26.56-1.67,1.1-.58.78-.87,1.45-.87,1.99v12.24h-2.77v-15.33c0-.6-.21-1.08-.62-1.44l1.68-2.07c.56.22.96.5,1.19.84.24.34.41.96.53,1.85Z"/>
      <path class="cls-1" d="M147.38,58.67h2.73l-2.16,18.85h-2.53l-2.23-18.85h2.71l.79,15.21.69-15.21Z"/>
      <path class="cls-1" d="M154.88,75.93c-.61,1.06-1.23,1.59-1.87,1.59s-1.18-.38-1.6-1.13c-.66-1.18-1-3.57-1-7.17v-2.25c0-2.92.6-5.16,1.81-6.72.93-1.19,2.18-1.78,3.75-1.78h1.29v13.98c0,.86.06,1.47.18,1.82s.3.63.53.84l-1.6,2.4c-.33-.1-.6-.26-.82-.47-.21-.21-.44-.59-.67-1.12ZM154.49,62.06c-.44.25-.77.66-.99,1.24-.21.58-.32,1.74-.32,3.49v3.42c0,2.17.14,3.57.43,4.21.12.27.27.4.45.4.19,0,.33-.06.43-.19v-12.56Z"/>
      <path class="cls-1" d="M161.22,55.67h.8v3h1.32v2.44h-1.32v12.79c0,.3.07.53.22.69.14.16.31.25.51.25.17,0,.37-.07.59-.22v2.41c-.49.34-.97.51-1.46.51-.79,0-1.42-.28-1.91-.84-.49-.56-.73-1.35-.73-2.37v-13.2h-1.41v-.85c.83-.85,1.95-2.38,3.38-4.59Z"/>
      <path class="cls-1" d="M165.78,52.9c.46,0,.84.16,1.15.49s.47.72.47,1.17-.16.85-.47,1.17c-.31.33-.7.49-1.15.49s-.82-.16-1.14-.49c-.31-.33-.47-.71-.47-1.16s.16-.85.49-1.18.7-.5,1.12-.5ZM164.4,58.67h2.77v18.66h-2.77v-18.66Z"/>
      <path class="cls-1" d="M171.71,58.48c.8,0,1.48.48,2.05,1.43.92,1.57,1.38,4.27,1.38,8.1s-.46,6.52-1.39,8.1c-.55.94-1.23,1.41-2.03,1.41s-1.48-.48-2.05-1.43c-.92-1.56-1.38-4.25-1.38-8.09s.46-6.53,1.39-8.1c.55-.95,1.23-1.43,2.03-1.43ZM171.71,61.73c-.15.2-.28.46-.36.79-.07.24-.13,1.04-.19,2.39-.09,2.17-.13,3.6-.13,4.28,0,2.81.23,4.51.68,5.1.15-.17.26-.4.35-.68.06-.2.12-1.04.19-2.51.1-2.21.14-3.65.14-4.33,0-2.84-.23-4.52-.68-5.04Z"/>
      <path class="cls-1" d="M177.52,58.48c.57.19,1.03.62,1.39,1.31.42-.54.77-.9,1.04-1.06.27-.16.59-.25.96-.25.62,0,1.14.27,1.57.81.43.54.65,1.36.65,2.46v15.58h-2.77v-15.31c0-.23-.06-.41-.19-.55-.13-.14-.28-.21-.45-.21-.11,0-.21.04-.32.12-.11.08-.21.2-.3.37v15.58h-2.77v-15.32c0-.72-.18-1.22-.55-1.5l1.75-2.03Z"/>
      <path class="cls-1" d="M189.06,73.81c.49.22.95.33,1.36.33.57,0,1.02-.19,1.36-.56.33-.38.5-.93.5-1.67,0-.58-.06-1.14-.19-1.68-.24-1.06-.69-2.44-1.33-4.13-.65-1.69-1.13-3.22-1.44-4.6-.17-.78-.26-1.66-.26-2.62,0-2.08.39-3.6,1.18-4.55s1.82-1.43,3.08-1.43c.59,0,1.27.12,2.03.37v3.23c-.45-.22-.85-.33-1.22-.33-.54,0-1,.23-1.38.68-.38.46-.57,1.12-.57,1.99,0,.58.06,1.14.19,1.7.24,1.04.64,2.33,1.22,3.88.72,1.93,1.24,3.66,1.57,5.19.16.77.25,1.6.25,2.48,0,1.74-.41,3.08-1.24,4.02-.83.94-1.86,1.41-3.1,1.41-.54,0-1.21-.13-2.02-.39v-3.33Z"/>
      <path class="cls-1" d="M199.73,58.48c.8,0,1.48.48,2.05,1.43.92,1.57,1.38,4.27,1.38,8.1s-.46,6.52-1.39,8.1c-.55.94-1.23,1.41-2.03,1.41s-1.48-.48-2.05-1.43c-.92-1.56-1.38-4.25-1.38-8.09s.46-6.53,1.39-8.1c.55-.95,1.23-1.43,2.03-1.43ZM199.73,61.73c-.15.2-.28.46-.36.79-.07.24-.13,1.04-.19,2.39-.09,2.17-.13,3.6-.13,4.28,0,2.81.23,4.51.68,5.1.15-.17.26-.4.35-.68.06-.2.12-1.04.19-2.51.1-2.21.14-3.65.14-4.33,0-2.84-.23-4.52-.68-5.04Z"/>
      <path class="cls-1" d="M209.16,77.03c-.12.1-.33.21-.64.32s-.59.17-.83.17c-.59,0-1.15-.21-1.68-.62-.53-.41-.93-1.04-1.21-1.88-.53-1.56-.8-3.52-.8-5.9v-2.72c0-2.96.46-5.13,1.4-6.5.65-.95,1.49-1.43,2.53-1.43.31,0,.72.06,1.24.19v2.88l-.07-.04c-.21-.14-.43-.21-.64-.21-.44,0-.79.24-1.07.71-.41.69-.61,2.16-.61,4.39v2.48c0,2.74.18,4.45.54,5.13.23.44.54.65.91.65.29,0,.61-.12.95-.37v2.74Z"/>
      <path class="cls-1" d="M211.42,52.9c.46,0,.84.16,1.15.49s.47.72.47,1.17-.16.85-.47,1.17c-.31.33-.7.49-1.15.49s-.82-.16-1.14-.49c-.31-.33-.47-.71-.47-1.16s.16-.85.49-1.18.7-.5,1.12-.5ZM210.04,58.67h2.77v18.66h-2.77v-18.66Z"/>
      <path class="cls-1" d="M220.59,77.24c-.44.19-.94.28-1.5.28-1.4,0-2.61-.69-3.65-2.08-1.04-1.39-1.56-3.85-1.56-7.37v-2.14c0-2.85.42-4.91,1.25-6.17.56-.85,1.3-1.28,2.21-1.28,1.12,0,1.97.51,2.54,1.52.57,1.02.85,2.24.85,3.68,0,1.72-.34,3.1-1.03,4.12-.68,1.02-1.65,1.73-2.89,2.13.02,1.56.34,2.77.98,3.63.46.61,1,.92,1.62.92.28,0,.67-.12,1.18-.37v3.14ZM217.4,61.42c-.25.4-.42.74-.5,1.04-.15.56-.22,1.22-.22,1.98v2.42c.42-.19.75-.52.98-.98.23-.47.34-1.17.34-2.13,0-1.04-.2-1.82-.6-2.33Z"/>
      <path class="cls-1" d="M224.07,55.67h.8v3h1.32v2.44h-1.32v12.79c0,.3.07.53.22.69.14.16.31.25.51.25.17,0,.37-.07.59-.22v2.41c-.49.34-.97.51-1.46.51-.79,0-1.42-.28-1.91-.84-.49-.56-.73-1.35-.73-2.37v-13.2h-1.41v-.85c.83-.85,1.95-2.38,3.38-4.59Z"/>
      <path class="cls-1" d="M226.9,58.67h2.73l.77,12.7.64-12.7h2.73l-1.97,17.71c-.18,1.59-.63,2.74-1.34,3.45s-1.63,1.06-2.78,1.06c-.2,0-.42,0-.64-.01v-2.69h.47c.4.01.71-.08.93-.27.22-.19.44-.62.65-1.27l-2.19-17.96Z"/>
    </g>
    <g>
      <path class="cls-1" d="M23.57,0h7.67v3.17h-2.23v21.07h-3.19V3.17h-2.25V0Z"/>
      <path class="cls-1" d="M32.33,0h2.77v6.49c.32-.44.61-.73.86-.88.26-.15.58-.22.96-.22.65,0,1.18.27,1.61.82.43.54.64,1.44.64,2.68v15.36h-2.77v-15.17c0-.3-.06-.52-.18-.66s-.26-.22-.42-.22c-.22,0-.45.19-.7.58v15.46h-2.77V0Z"/>
      <path class="cls-1" d="M47.09,24.14c-.44.19-.94.28-1.5.28-1.4,0-2.61-.69-3.65-2.08s-1.56-3.85-1.56-7.37v-2.14c0-2.85.42-4.91,1.25-6.17.56-.85,1.3-1.28,2.21-1.28,1.12,0,1.97.51,2.54,1.52.57,1.02.85,2.24.85,3.68,0,1.72-.34,3.1-1.03,4.12-.68,1.02-1.65,1.73-2.89,2.13.02,1.56.34,2.77.98,3.63.46.61.99.92,1.62.92.28,0,.67-.12,1.18-.37v3.14ZM43.9,8.33c-.25.4-.42.74-.5,1.04-.15.56-.22,1.22-.22,1.98v2.42c.42-.19.75-.52.98-.98.23-.47.34-1.17.34-2.13,0-1.04-.2-1.82-.6-2.33Z"/>
    </g>
  </g>
</svg>